<svg width="194" height="28" viewBox="0 0 194 28" fill="none" xmlns="http://www.w3.org/2000/svg">
<path d="M6.13161 0V6.45H10.7052V9H6.13161V16.7C6.13161 18.35 7.03627 19.25 8.54404 19.25H10.7052V21.8H8.29275C5.17668 21.8 3.16632 19.9 3.16632 16.75V9H0V6.45H3.16632V0H6.13161Z" fill="#222222"/>
<path d="M26.386 16.8C25.8331 19.95 23.0689 22.05 19.2492 22.05C14.4746 22.05 11.5093 18.3 11.5093 14.05C11.5093 9.74995 14.2233 6.19995 18.9476 6.19995C23.7222 6.19995 26.2854 9.59995 26.2854 13.5C26.2854 13.9 26.2352 14.4 26.2352 14.65H14.4243C14.6756 17.5 16.5854 19.5 19.2492 19.5C21.5108 19.5 22.9683 18.5 23.4207 16.8H26.386ZM14.5248 12.45H23.2699C23.0689 10.1 21.5108 8.54995 18.9476 8.54995C16.5352 8.54995 14.9772 9.89995 14.5248 12.45Z" fill="#222222"/>
<path d="M41.4134 11.9V21.8H38.4481V19.3C37.6942 20.95 35.7341 22.05 33.4222 22.05C30.2559 22.05 28.1953 20.15 28.1953 17.4C28.1953 14.45 30.5575 12.6 34.1761 12.6H37.3927C38.0963 12.6 38.4481 12.25 38.4481 11.7C38.4481 9.84995 37.0911 8.54995 34.729 8.54995C32.5678 8.54995 31.0098 9.89995 30.9093 11.45H28.145C28.3963 8.44995 31.1606 6.19995 34.7792 6.19995C38.7999 6.19995 41.4134 8.44995 41.4134 11.9ZM38.4481 15.05V14.7H34.4777C32.4673 14.7 31.1606 15.75 31.1606 17.35C31.1606 18.75 32.3165 19.7 34.0253 19.7C36.8398 19.7 38.4481 17.9 38.4481 15.05Z" fill="#222222"/>
<path d="M43.4741 14.1C43.4741 9.84995 46.2384 6.19995 51.1135 6.19995C54.7322 6.19995 57.8482 8.34995 58.3006 11.8H55.3353C55.084 10.05 53.2746 8.79995 51.214 8.79995C48.098 8.79995 46.5902 11.2 46.5902 14.15C46.5902 17.1 48.1482 19.5 51.214 19.5C53.3249 19.5 54.8829 18.4 55.3855 16.65H58.3508C57.8482 19.9 55.084 22.05 51.1638 22.05C46.2886 22.05 43.4741 18.35 43.4741 14.1Z" fill="#222222"/>
<path d="M60.2104 0H63.1757V9.15C63.9799 7.25 65.8395 6.2 68.1514 6.2C71.6193 6.2 73.9312 8.7 73.9312 12.35V21.8H70.9659V12.9C70.9659 10.45 69.5084 8.8 67.3472 8.8C64.9348 8.8 63.226 10.75 63.226 13.45V21.75H60.2607L60.2104 0Z" fill="#222222"/>
<path d="M89.4608 11.9V21.8H86.4955V19.3C85.7416 20.95 83.7815 22.05 81.4696 22.05C78.3033 22.05 76.2426 20.15 76.2426 17.4C76.2426 14.45 78.6048 12.6 82.2235 12.6H85.4401C86.1437 12.6 86.4955 12.25 86.4955 11.7C86.4955 9.84995 85.1385 8.54995 82.7763 8.54995C80.6152 8.54995 79.0572 9.89995 78.9566 11.45H76.1924C76.4437 8.44995 79.2079 6.19995 82.8266 6.19995C86.8473 6.19995 89.4608 8.44995 89.4608 11.9ZM86.4955 15.05V14.7H82.525C80.5147 14.7 79.2079 15.75 79.2079 17.35C79.2079 18.75 80.3639 19.7 82.0727 19.7C84.8872 19.7 86.4955 17.9 86.4955 15.05Z" fill="#222222"/>
<path d="M95.0903 19.5V21.8H92.125V0H95.0903V8.7C95.9949 7.2 97.8545 6.2 99.9654 6.2C104.69 6.2 107.354 9.55 107.354 14.1C107.354 18.65 104.69 22 99.9654 22C97.9048 22.05 95.9949 21 95.0903 19.5ZM104.338 14.1C104.338 10.9 102.428 8.75 99.6136 8.75C96.7488 8.75 94.8892 10.9 94.8892 14.1C94.8892 17.3 96.7488 19.45 99.6136 19.45C102.428 19.45 104.338 17.3 104.338 14.1Z" fill="#222222"/>
<path d="M109.364 0H112.329V21.8H109.364V0Z" fill="#222222"/>
<path d="M129.317 16.8C128.764 19.95 126 22.05 122.18 22.05C117.405 22.05 114.44 18.3 114.44 14.05C114.44 9.74995 117.154 6.19995 121.878 6.19995C126.653 6.19995 129.216 9.59995 129.216 13.5C129.216 13.9 129.166 14.4 129.166 14.65H117.355C117.606 17.55 119.516 19.55 122.18 19.55C124.441 19.55 125.899 18.55 126.351 16.85H129.317V16.8ZM117.455 12.45H126.201C126 10.1 124.441 8.54995 121.878 8.54995C119.466 8.54995 117.908 9.89995 117.455 12.45Z" fill="#222222"/>
<path d="M135.096 7.44995V10.75H131.779V7.44995H135.096ZM135.096 18.55V21.8H131.779V18.55H135.096Z" fill="#222222"/>
<path d="M141.278 19.5V21.8H138.313V0H141.278V8.7C142.183 7.2 144.043 6.2 146.153 6.2C150.878 6.2 153.541 9.55 153.541 14.1C153.541 18.65 150.878 22 146.153 22C144.043 22.05 142.183 21.05 141.278 19.5ZM150.526 14.1C150.526 10.9 148.616 8.75 145.802 8.75C142.937 8.75 141.077 10.9 141.077 14.1C141.077 17.3 142.937 19.45 145.802 19.45C148.616 19.45 150.526 17.3 150.526 14.1Z" fill="#222222"/>
<path d="M155.803 0H158.769V21.8H155.803V0Z" fill="#222222"/>
<path d="M160.98 14.1C160.98 9.49995 164.297 6.19995 168.921 6.19995C173.545 6.19995 176.912 9.49995 176.912 14.1C176.912 18.7 173.595 22 168.971 22C164.347 22 160.98 18.7 160.98 14.1ZM173.846 14.1C173.846 10.95 171.836 8.74995 168.971 8.74995C166.056 8.74995 164.046 10.95 164.046 14.1C164.046 17.25 166.056 19.45 168.971 19.45C171.886 19.45 173.846 17.25 173.846 14.1Z" fill="#222222"/>
<path d="M194 6.45V22.5C194 25.75 191.638 28 188.27 28H180.832V25.55H187.969C189.728 25.55 191.035 24.2 191.035 22.35V19.85C190.281 21.15 188.321 22.05 186.16 22.05C181.435 22.05 178.771 18.7 178.771 14.15C178.771 9.6 181.435 6.25 186.16 6.25C188.22 6.25 190.13 7.2 191.035 8.55V6.5H194V6.45ZM191.286 14.1C191.286 10.85 189.426 8.75 186.562 8.75C183.697 8.75 181.837 10.85 181.837 14.1C181.837 17.35 183.697 19.45 186.562 19.45C189.376 19.45 191.286 17.35 191.286 14.1Z" fill="#222222"/>
</svg>
