<svg width="183" height="30" viewBox="0 0 183 30" fill="none" xmlns="http://www.w3.org/2000/svg">
<g clip-path="url(#clip0_2015_3315)">
<path d="M178.821 2.72754H146.06C143.798 2.72754 141.965 4.5591 141.965 6.81845V20.4548C141.965 22.7142 143.798 24.5457 146.06 24.5457H178.821C181.083 24.5457 182.916 22.7142 182.916 20.4548V6.81845C182.916 4.5591 181.083 2.72754 178.821 2.72754Z" fill="#F5F5F5"/>
<path d="M149.75 9.91602H152.677C153.092 9.91602 153.477 10.0069 153.834 10.1887C154.191 10.3706 154.47 10.6215 154.675 10.9415C154.885 11.2542 154.992 11.6033 154.992 11.9887C154.992 12.3742 154.894 12.7124 154.697 13.0033C154.507 13.2869 154.252 13.5051 153.933 13.6578V13.7124C154.339 13.8505 154.664 14.0796 154.904 14.3997C155.145 14.7197 155.265 15.0978 155.265 15.5342C155.265 15.9633 155.151 16.3452 154.926 16.6797C154.708 17.0069 154.409 17.2651 154.031 17.4542C153.659 17.636 153.251 17.7269 152.808 17.7269H149.75V9.91602ZM152.622 13.1997C152.985 13.1997 153.277 13.0906 153.496 12.8724C153.714 12.6469 153.823 12.3887 153.823 12.0978C153.823 11.8069 153.714 11.556 153.496 11.3451C153.284 11.1269 153.007 11.0178 152.666 11.0178H150.951V13.1997H152.622ZM152.808 16.6142C153.186 16.6142 153.488 16.5014 153.714 16.276C153.946 16.0432 154.064 15.767 154.064 15.4469C154.064 15.1269 153.943 14.8506 153.703 14.6178C153.47 14.3851 153.157 14.2687 152.764 14.2687H150.951V16.6142H152.808ZM156.927 9.91602H161.667V11.0506H158.129V13.2542H161.317V14.3887H158.129V16.5924H161.667V17.7269H156.927V9.91602ZM165.112 11.0506H162.917V9.91602H168.498V11.0506H166.313V17.7269H165.112V11.0506ZM171.525 9.91602H172.89L175.85 17.7269H174.528L173.808 15.7197H170.619L169.898 17.7269H168.577L171.525 9.91602ZM173.414 14.6069L172.541 12.2178L172.246 11.3233H172.18L171.886 12.2178L171.012 14.6069H173.414Z" fill="#616161"/>
<path d="M13.392 0C8.75838 0 4.2667 0.620745 0 1.78465V16.8806H6.69601V7.32588C8.84944 6.82553 11.0886 6.55529 13.392 6.55529C15.6955 6.55529 17.9346 6.82286 20.0881 7.32588V16.8779L26.784 12.0163V1.78465C22.5173 0.620745 18.0282 0 13.392 0Z" fill="#242E33"/>
<path d="M13.3952 21.7362L6.69922 16.8799V25.1102L13.3952 29.9664L26.7872 20.2485V12.0156L13.3952 21.7362Z" fill="#00E673"/>
<path d="M45.0216 19.6844C43.5405 18.8335 42.3754 17.6724 41.5236 16.2035C40.672 14.7346 40.2461 13.1051 40.2461 11.3178C40.2461 9.53045 40.672 7.90099 41.5236 6.43208C42.3754 4.96316 43.5405 3.80193 45.0216 2.95109C46.5002 2.10023 48.1366 1.6748 49.9258 1.6748C52.714 1.6748 55.0202 2.68084 56.8441 4.69291L54.3935 7.0662C53.2068 5.67487 51.7257 4.97652 49.9527 4.97652C48.8009 4.97652 47.751 5.23875 46.8027 5.76316C45.8573 6.28759 45.1128 7.03143 44.5691 7.99465C44.028 8.95788 43.7548 10.0656 43.7548 11.3204C43.7548 12.5753 44.0252 13.6831 44.5691 14.6462C45.11 15.6095 45.8547 16.3534 46.8027 16.8778C47.7484 17.4021 48.7983 17.6644 49.9527 17.6644C51.8971 17.6644 53.5228 16.8563 54.83 15.2404L57.3076 17.5869C56.3941 18.6865 55.3149 19.5239 54.0694 20.1019C52.8212 20.6772 51.4417 20.966 49.9258 20.966C48.1366 20.9607 46.5028 20.5354 45.0216 19.6844Z" fill="#242E33"/>
<path d="M59.5547 2.08398H62.9348V6.75028L62.7286 9.04596H62.9348C63.3125 8.42791 63.8643 7.92756 64.5874 7.5503C65.3106 7.17303 66.0926 6.98307 66.9363 6.98307C68.5354 6.98307 69.7621 7.45931 70.6138 8.41452C71.4656 9.36973 71.8913 10.6888 71.8913 12.3718V20.5458H68.5113V12.7838C68.5113 11.941 68.2836 11.2881 67.8284 10.8253C67.373 10.3624 66.7649 10.1296 66.0097 10.1296C65.1151 10.1296 64.3785 10.4908 63.8026 11.2132C63.2268 11.9357 62.9376 12.8213 62.9376 13.8701V20.5485H59.5574V2.08398H59.5547Z" fill="#242E33"/>
<path d="M77.4668 20.0573C76.4167 19.4553 75.5945 18.6258 75.0025 17.5689C74.408 16.5121 74.1133 15.3213 74.1133 13.997C74.1133 12.7421 74.4053 11.5782 74.9918 10.5026C75.5757 9.42964 76.3846 8.57344 77.4186 7.93665C78.4496 7.29984 79.6042 6.98145 80.8763 6.98145C82.2342 6.98145 83.4046 7.27309 84.3877 7.85904C85.368 8.44234 86.1126 9.24234 86.6215 10.2564C87.1278 11.2705 87.3822 12.3969 87.3822 13.633C87.3822 14.029 87.3554 14.4063 87.3044 14.7676H77.4159C77.5872 15.8163 78.005 16.6111 78.6667 17.1515C79.3282 17.692 80.1236 17.9649 81.0531 17.9649C81.8272 17.9649 82.4941 17.7963 83.0539 17.4618C83.6136 17.1275 84.0556 16.6752 84.3823 16.108L87.1197 17.4485C85.7778 19.787 83.7396 20.9562 81.0021 20.9562C79.6951 20.9615 78.5167 20.6593 77.4668 20.0573ZM84.1252 12.3755C84.0903 11.9635 83.9404 11.5541 83.6726 11.1501C83.4046 10.7461 83.0351 10.4116 82.5636 10.144C82.0897 9.87916 81.5353 9.74537 80.8977 9.74537C80.0889 9.74537 79.3952 9.98082 78.8194 10.4544C78.2435 10.928 77.8255 11.5675 77.5685 12.3755H84.1252Z" fill="#242E33"/>
<path d="M92.4861 20.0701C91.4362 19.4761 90.6139 18.6468 90.022 17.5819C89.4274 16.5169 89.1328 15.3128 89.1328 13.9724C89.1328 12.6319 89.4301 11.4332 90.022 10.3763C90.6165 9.31947 91.4362 8.49002 92.4861 7.88802C93.5361 7.28599 94.7226 6.98633 96.0483 6.98633C97.5108 6.98633 98.7671 7.29938 99.8169 7.92814C100.867 8.55692 101.625 9.44522 102.088 10.5958L98.992 11.8854C98.4401 10.7161 97.4599 10.1329 96.0483 10.1329C95.0173 10.1329 94.1681 10.486 93.5066 11.1897C92.8451 11.8961 92.513 12.8219 92.513 13.9751C92.513 15.1443 92.8451 16.0808 93.5066 16.7845C94.1681 17.4908 95.0173 17.8414 96.0483 17.8414C97.476 17.8414 98.5099 17.2233 99.1446 15.9845L102.217 17.325C101.649 18.4755 100.84 19.3718 99.7902 20.0059C98.7402 20.6427 97.4921 20.9611 96.0483 20.9611C94.7226 20.9611 93.5361 20.6641 92.4861 20.0701Z" fill="#242E33"/>
<path d="M104.387 2.08398H107.767V12.139H107.946L112.671 7.39512H116.828V7.60113L111.846 12.4735L117.061 20.3372V20.5432H113.059L109.473 14.7932L107.769 16.4682V20.5432H104.387V2.08398Z" fill="#242E33"/>
<path d="M119.422 19.9821C118.431 19.3292 117.74 18.4784 117.344 17.4296L120.362 16.1132C120.638 16.7312 121.029 17.1995 121.538 17.5177C122.044 17.8363 122.636 17.9942 123.306 17.9942C123.925 17.9942 124.441 17.8952 124.854 17.6972C125.266 17.499 125.473 17.1781 125.473 16.7312C125.473 16.3004 125.282 15.9794 124.905 15.7653C124.527 15.5512 123.959 15.356 123.201 15.1847L121.653 14.8503C120.587 14.5934 119.701 14.1251 118.994 13.4455C118.286 12.7659 117.936 11.9204 117.936 10.9064C117.936 10.1492 118.163 9.47223 118.619 8.87023C119.074 8.2682 119.693 7.80533 120.477 7.4789C121.26 7.15246 122.125 6.98926 123.073 6.98926C125.791 6.98926 127.607 7.94446 128.518 9.85219L125.628 11.1151C125.111 10.1866 124.286 9.72376 123.15 9.72376C122.567 9.72376 122.101 9.83078 121.758 10.0448C121.412 10.2589 121.241 10.5318 121.241 10.8582C121.241 11.4763 121.825 11.9418 122.995 12.2495L124.932 12.7124C126.239 13.0389 127.224 13.5365 127.886 14.208C128.547 14.8796 128.88 15.7038 128.88 16.6832C128.88 17.5259 128.636 18.2698 128.143 18.9145C127.653 19.5594 126.98 20.0623 126.129 20.4235C125.277 20.7847 124.334 20.9642 123.303 20.9642C121.707 20.9615 120.413 20.6349 119.422 19.9821Z" fill="#242E33"/>
</g>
<defs>
<clipPath id="clip0_2015_3315">
<rect width="182.917" height="30" fill="white"/>
</clipPath>
</defs>
</svg>
